<svg width="25" height="24" viewBox="0 0 25 24" fill="none" xmlns="http://www.w3.org/2000/svg">
<path d="M10.4513 10.9749C11.1812 12.257 12.243 13.3188 13.5251 14.0487L14.2127 13.0858C14.3232 12.9309 14.4867 12.822 14.6722 12.7796C14.8576 12.7372 15.0522 12.7642 15.2191 12.8556C16.3191 13.4567 17.5339 13.8183 18.7837 13.9164C18.9787 13.9319 19.1608 14.0203 19.2935 14.164C19.4263 14.3077 19.5 14.4962 19.5 14.6919V18.1623C19.5 18.3549 19.4286 18.5406 19.2996 18.6836C19.1706 18.8266 18.9931 18.9166 18.8016 18.9362C18.3893 18.979 17.974 19 17.5556 19C10.8978 19 5.5 13.6022 5.5 6.94444C5.5 6.526 5.521 6.11067 5.56378 5.69844C5.58342 5.50688 5.67343 5.3294 5.81639 5.20038C5.95935 5.07136 6.14509 4.99996 6.33767 5H9.80811C10.0038 4.99998 10.1923 5.0737 10.336 5.20646C10.4797 5.33923 10.5681 5.52128 10.5836 5.71633C10.6817 6.96606 11.0433 8.18086 11.6444 9.28089C11.7358 9.44777 11.7628 9.64235 11.7204 9.82782C11.678 10.0133 11.5691 10.1768 11.4142 10.2873L10.4513 10.9749ZM8.48978 10.4639L9.96756 9.40844C9.54816 8.50318 9.26083 7.54243 9.11433 6.55556H7.06333C7.05867 6.68467 7.05633 6.81456 7.05633 6.94444C7.05556 12.7436 11.7564 17.4444 17.5556 17.4444C17.6854 17.4444 17.8153 17.4421 17.9444 17.4367V15.3857C16.9576 15.2392 15.9968 14.9518 15.0916 14.5324L14.0361 16.0102C13.6112 15.8451 13.1984 15.6502 12.801 15.4269L12.7559 15.4012C11.2303 14.533 9.967 13.2697 9.09878 11.7441L9.07311 11.699C8.84982 11.3016 8.65489 10.8888 8.48978 10.4639Z" fill="#17181A"/>
</svg>
